<?xml version="1.0" encoding="utf-8"?>
<!-- Generator: Adobe Illustrator 16.0.0, SVG Export Plug-In . SVG Version: 6.00 Build 0)  -->
<!DOCTYPE svg PUBLIC "-//W3C//DTD SVG 1.1//EN" "http://www.w3.org/Graphics/SVG/1.1/DTD/svg11.dtd">
<svg version="1.1" id="Layer_1" xmlns="http://www.w3.org/2000/svg" xmlns:xlink="http://www.w3.org/1999/xlink" x="0px" y="0px"
	 width="240px" height="50px" viewBox="0 0 240 50" enable-background="new 0 0 240 50" xml:space="preserve">
<g>
	<g enable-background="new    ">
		<path fill="#FFFFFF" d="M185.379,18.621v8.337c0,1.232-0.286,2.111-0.859,2.636s-1.449,0.787-2.627,0.787
			c-0.617,0-1.123-0.084-1.518-0.252c-0.395-0.167-0.708-0.405-0.94-0.714c-0.232-0.308-0.392-0.667-0.479-1.078
			s-0.13-0.844-0.13-1.298v-0.503h2.141v0.357c0,0.616,0.068,1.073,0.203,1.37c0.135,0.298,0.414,0.446,0.836,0.446
			s0.699-0.148,0.835-0.446c0.136-0.297,0.202-0.754,0.202-1.37v-8.272H185.379z"/>
		<path fill="#FFFFFF" d="M189.091,18.621v8.077c0,0.292,0.019,0.56,0.058,0.804c0.037,0.243,0.107,0.454,0.211,0.632
			c0.102,0.179,0.242,0.319,0.421,0.422s0.403,0.154,0.673,0.154c0.281,0,0.509-0.052,0.682-0.154s0.311-0.243,0.414-0.422
			c0.103-0.178,0.172-0.389,0.211-0.632c0.037-0.244,0.057-0.512,0.057-0.804v-8.077h2.336v8.077c0,0.735-0.104,1.344-0.309,1.825
			s-0.481,0.862-0.828,1.144c-0.346,0.281-0.74,0.471-1.184,0.567c-0.443,0.098-0.902,0.146-1.379,0.146
			c-0.476,0-0.936-0.044-1.379-0.13c-0.443-0.087-0.838-0.263-1.184-0.527s-0.621-0.641-0.827-1.127
			c-0.206-0.487-0.308-1.119-0.308-1.898v-8.077H189.091z"/>
		<path fill="#FFFFFF" d="M195.625,18.621h3.909c0.476,0,0.917,0.049,1.321,0.146c0.406,0.098,0.755,0.26,1.047,0.487
			c0.292,0.227,0.52,0.529,0.682,0.908c0.162,0.378,0.242,0.843,0.242,1.395c0,0.627-0.146,1.165-0.438,1.614
			c-0.292,0.448-0.73,0.754-1.314,0.916v0.032c0.649,0.087,1.163,0.362,1.541,0.828c0.379,0.465,0.568,1.086,0.568,1.865
			c0,0.454-0.06,0.887-0.179,1.297c-0.118,0.411-0.321,0.771-0.608,1.079c-0.286,0.308-0.659,0.554-1.119,0.738
			c-0.459,0.184-1.029,0.275-1.711,0.275h-3.941V18.621z M197.961,23.373h0.664c0.649,0,1.123-0.116,1.42-0.349
			s0.446-0.624,0.446-1.176s-0.136-0.94-0.405-1.168c-0.271-0.227-0.697-0.34-1.281-0.34h-0.844V23.373z M197.961,28.482h0.908
			c0.563,0,1.016-0.124,1.362-0.373c0.347-0.248,0.519-0.708,0.519-1.378c0-0.336-0.045-0.614-0.137-0.836
			c-0.093-0.222-0.217-0.399-0.373-0.535c-0.157-0.135-0.344-0.229-0.561-0.284c-0.216-0.054-0.454-0.081-0.713-0.081h-1.006V28.482
			z"/>
		<path fill="#FFFFFF" d="M212.848,30.202h-2.433l-0.535-2.449h-3.082l-0.535,2.449h-2.433l3.064-11.581h2.888L212.848,30.202z
			 M208.355,20.632h-0.033l-1.119,5.207h2.271L208.355,20.632z"/>
		<path fill="#FFFFFF" d="M213.656,18.621h4.314c0.973,0,1.729,0.246,2.271,0.738c0.54,0.491,0.812,1.24,0.812,2.246
			c0,0.778-0.157,1.414-0.471,1.906c-0.314,0.491-0.801,0.808-1.46,0.948v0.033c0.584,0.086,1.011,0.275,1.281,0.567
			s0.438,0.762,0.503,1.411c0.021,0.216,0.037,0.451,0.049,0.705c0.01,0.255,0.021,0.538,0.032,0.852
			c0.021,0.617,0.054,1.087,0.097,1.411c0.065,0.325,0.206,0.547,0.422,0.665v0.098h-2.529c-0.119-0.162-0.195-0.349-0.228-0.56
			s-0.054-0.43-0.065-0.657l-0.064-2.222c-0.021-0.454-0.135-0.812-0.341-1.07c-0.205-0.26-0.552-0.39-1.038-0.39h-1.249v4.898
			h-2.335V18.621z M215.991,23.682h0.974c0.563,0,0.994-0.133,1.297-0.397s0.455-0.711,0.455-1.338c0-1.07-0.541-1.605-1.623-1.605
			h-1.103V23.682z"/>
		<path fill="#FFFFFF" d="M229.16,18.621v1.914h-2.531v9.667h-2.335v-9.667h-2.53v-1.914H229.16z"/>
		<path fill="#FFFFFF" d="M236.635,18.621v1.914h-4.137v2.725h3.893v1.914h-3.893v3.114h4.299v1.914h-6.635V18.621H236.635z"/>
	</g>
	<path fill="#FFFFFF" d="M11.155,47.875c1.237,0.553,2.485,1.063,3.756,1.439c0.164-0.049,0.328-0.096,0.493-0.148
		c2.156-0.697,4.154-1.881,6.291-2.877c1.188,0.921,2.366,1.62,3.537,2.152c1.772-0.705,3.476-1.569,5.102-2.613
		c1.8-1.16,3.598-2.326,5.403-3.479c1.183-0.752,2.416-0.656,3.493,0.297c1.005,0.889,2.001,1.781,2.98,2.691
		c0.009-0.006,0.018-0.012,0.027-0.02c8.408,5.23,12.045,5.3,21.223,0.41c5.957,4.287,12.141,4.478,18.535,0.551
		c0.834-0.512,2.568-0.407,3.438,0.132c5.768,3.582,11.318,2.891,17.037-0.146c1.156-0.613,3.227-0.727,4.291-0.092
		c5.617,3.357,11,2.793,16.646,0.086c1.434-0.688,3.788-0.748,5.161-0.029c0.726,0.381,1.447,0.692,2.168,0.955
		c2.806-2.281,8.761-7.362,13.164-12.797c6.134-7.564,8.576-12.383,10.867-18.18c0.311-0.786,1.221-1.755,1.186-0.94
		c-0.074,1.807-0.77,3.24-1.445,4.571c-3.429,6.74-5.617,10.463-8.764,14.227c-1.926,2.304-4.094,4.67-6.471,6.779
		c-2.5,2.219-5.131,4.555-8.182,6.469c1.278,0.432,2.555,0.684,3.832,0.777c3.215-2.785,7.17-6.484,10.143-10.152
		c6.131-7.565,11.123-17.697,12.871-23.655c0.236-0.811,1.22-1.756,1.187-0.94c-0.075,1.807-0.324,3.425-3.33,10.098
		c-2.915,6.471-6.222,12.087-9.644,15.583c-2.098,2.146-4.092,4.67-6.469,6.781c-0.918,0.815-1.899,1.576-2.91,2.313
		c1.711-0.072,3.436-0.409,5.19-0.972c1.601-1.381,3.161-2.832,4.544-4.291c6.697-7.069,12.424-23.417,14.625-29.227
		c0.299-0.789,0.542-0.542,0.445,0.27c-0.215,1.795-1.725,8.712-4.533,15.471c-2.416,5.819-5.857,11.431-9.54,14.651
		c-0.675,0.592-1.345,1.219-2.017,1.855c1.361-0.455,2.455-0.734,3.43-0.867c3.877-4.24,7.055-9.037,9.453-14.352
		c1.378-3.057,3.956-13.35,4.154-15.216c0.287-2.732,0.088-4.542-0.496-8.073c-0.493-2.996-1.976-4.028-4.525-3.931
		c-1.33,0.05-2.736,0.306-3.96,0.886c-9.759,4.643-43.783,18.33-71.141,30.697c-26.831,12.412-34.856,5.92-36.791,4.691
		c-0.967-0.611-1.847-1.367-2.744-2.081c-0.515-0.411-0.294-0.728,0.211-0.922c3.892-1.504,7.208-3.856,10.167-6.789
		c1.793-1.778,2.566-4.038,3.416-6.325c1.174-3.167,0.622-5.568-0.018-8.595c-0.759-3.586-2.699-7.391-4.511-10.531
		c-0.134-0.233-0.62-1.2-0.789-1.223c-0.17-0.024-0.479,0.165-0.555,0.338c-1.213,2.724-3.595,4.34-5.706,6.241
		c-2.563,2.307-5.058,4.702-7.453,7.184c-1.77,1.836-2.715,3.975-3.623,6.573c-0.859,1.908-1.103,3.942-1.425,5.963
		c-0.081,0.511-0.239,0.685-0.763,0.556c-2.951-0.729-5.9-0.312-8.816,0.178c-2.081,0.349-3.922,1.422-5.606,2.65
		c-2.366,1.727-4.57,3.682-6.958,5.375c-4,2.709-7.237,2.893-7.597,3.112C4.557,44.205,8.307,46.604,11.155,47.875z M143,31.032
		c6.154-7.547,3.35-5.425,7.08-11.107c0.464-0.707,1.221-1.754,1.186-0.938c-0.074,1.805-3.416,8.142-6.561,11.906
		c-1.926,2.303-3.326,4.541-5.703,6.65c-3.021,2.682-6.215,5.539-10.128,7.602C128.874,45.145,135.727,39.953,143,31.032z
		 M128.702,28.375c0,1.009-0.818,1.827-1.827,1.827s-1.232-0.366-1.232-1.375S126.46,27,127.469,27
		C128.479,27,128.702,27.366,128.702,28.375z M125.413,25.635c0.094,0.092,0.274,0.188,0.37,0.279
		c-0.512,0.564-1.518,1.512-2.03,2.075c-0.121-0.115-0.321-0.188-0.44-0.302C123.85,27.146,124.874,26.177,125.413,25.635z"/>
</g>
</svg>
